<?xml version="1.0" encoding="UTF-8"?>
<svg version="1.1" xmlns="http://www.w3.org/2000/svg" width="512" height="512">
<path d="M0 0 C2.94288372 0.003123 5.88572088 -0.0030332 8.8285979 -0.00903875 C15.767508 -0.02299167 22.70629466 -0.02159441 29.64520597 -0.01013684 C36.78692531 0.0013953 43.92827133 -0.0128371 51.06994164 -0.03953332 C57.2308433 -0.06169467 63.39162773 -0.0683285 69.55256641 -0.06245691 C73.22020179 -0.05909437 76.88759668 -0.06145802 80.55519819 -0.07870793 C84.63329423 -0.09706144 88.71065959 -0.08298598 92.78876066 -0.06580091 C93.99505125 -0.07546887 95.20134184 -0.08513684 96.44418669 -0.09509778 C102.77178162 -0.03917004 106.73953646 0.12165977 111.51678801 4.43590808 C115.14512464 8.2552098 115.82679259 11.31869814 116.01678801 16.43590808 C115.82679259 21.55311802 115.14512464 24.61660636 111.51678801 28.43590808 C106.06446375 33.18046494 101.23320814 33.00416559 94.19745207 32.95006824 C93.06481428 32.95719333 91.93217649 32.96431842 90.76521635 32.97165942 C87.02077145 32.99095293 83.27689126 32.98265289 79.53241301 32.97497058 C76.916092 32.98488273 74.29977798 32.99682594 71.68347502 33.01070666 C65.48959607 33.04094891 59.29584508 33.05265731 53.10189843 33.05628312 C41.401377 33.06330875 29.70101344 33.09915718 18.00060606 33.14972568 C14.18223888 33.16218562 10.36404077 33.16156245 6.54565763 33.15944934 C-24.47606259 33.20878516 -52.7660044 36.48405898 -76.48321199 58.43590808 C-77.25922762 59.13200183 -78.03524324 59.82809558 -78.83477449 60.54528308 C-97.6685013 78.2787578 -106.46890509 103.01272501 -107.48321199 128.43590808 C-107.65667604 135.74433522 -107.62027309 143.05563032 -107.61260653 150.36559558 C-107.61396395 152.55181414 -107.6157458 154.73803246 -107.61791658 156.92425036 C-107.62245027 162.82500535 -107.62071816 168.72574272 -107.6175375 174.62649798 C-107.61499281 180.82322238 -107.61735729 187.01994534 -107.61892366 193.2166698 C-107.62073922 203.61983008 -107.61835517 214.02298325 -107.61358309 224.42614245 C-107.60814166 236.42651721 -107.60990475 248.42687216 -107.61540949 260.42724681 C-107.61995812 270.75972331 -107.62058261 281.09219471 -107.61797082 291.42467189 C-107.61641768 297.58302217 -107.6161878 303.74136448 -107.61950731 309.89971423 C-107.6224115 315.69134569 -107.62036379 321.4829554 -107.61461306 327.27458453 C-107.61329907 329.39084088 -107.61365623 331.50709908 -107.61587572 333.62335467 C-107.63628025 355.06789224 -106.90944899 374.70144701 -97.48321199 394.43590808 C-97.04235262 395.35887683 -96.60149324 396.28184558 -96.14727449 397.23278308 C-85.31906187 418.4106133 -65.67232848 434.73182329 -43.17461824 442.20250964 C-40.74597215 442.94940688 -38.31000302 443.64406806 -35.85821199 444.31090808 C-35.11941805 444.51425769 -34.3806241 444.7176073 -33.61944246 444.92711902 C-19.96506267 448.36529364 -5.51640365 447.5849878 8.4530673 447.58117175 C10.65235275 447.58416862 12.85163767 447.58757236 15.05092192 447.59134936 C20.99332276 447.60013978 26.93570918 447.60252538 32.87811589 447.60316515 C36.5995562 447.60387847 40.3209929 447.60601811 44.04243231 447.60866237 C56.38072773 447.61742382 68.71901442 447.62208412 81.05731299 447.62133189 C82.05178559 447.62127196 82.05178559 447.62127196 83.06634855 447.62121081 C84.0620573 447.62114949 84.0620573 447.62114949 85.07788137 447.62108693 C95.82520983 447.62068085 106.57250319 447.63024486 117.3198215 447.64434918 C128.39670434 447.6587695 139.47356927 447.66543382 150.55046159 447.6647554 C156.75256269 447.66450164 162.95462403 447.66728515 169.15671682 447.67793345 C174.99514848 447.68768483 180.83350292 447.68764582 186.67193747 447.68041682 C188.80102735 447.67937968 190.93012222 447.68168138 193.05920362 447.68777728 C223.78936096 447.76998613 252.03640405 444.21207062 275.51678801 422.43590808 C276.31600676 421.70500964 277.11522551 420.9741112 277.93866301 420.22106433 C297.83334018 401.22765609 305.65046675 376.21025553 306.62737608 349.40105319 C306.78206514 342.52025614 306.79503329 335.63959858 306.79118299 328.75730968 C306.79020391 324.89367003 306.80331532 321.03029816 306.82016325 317.16669726 C306.86669164 306.19778402 306.89116565 295.22889071 306.89764738 284.25988269 C306.90180112 277.51405504 306.92684461 270.76855905 306.96297407 264.02281642 C306.97276656 261.46278444 306.97510706 258.90271255 306.96980238 256.34266734 C306.96274881 252.77731837 306.97997259 249.21284419 307.00262785 245.647578 C306.99036917 244.06962955 306.99036917 244.06962955 306.97786283 242.45980334 C307.04588844 236.45083368 307.53578368 233.02338884 311.51678801 228.43590808 C315.33608973 224.80757144 318.39957807 224.1259035 323.51678801 223.93590808 C328.63399794 224.1259035 331.69748629 224.80757144 335.51678801 228.43590808 C340.61125993 234.08926691 340.08393047 239.75476528 340.03436613 247.10045886 C340.04488005 249.014052 340.04488005 249.014052 340.05560637 250.96630359 C340.07380839 254.45907062 340.06677869 257.95136368 340.05409002 261.44413877 C340.04391553 265.12100351 340.0533708 268.79782946 340.05963469 272.47469592 C340.06691104 278.66350009 340.05733724 284.8521134 340.03827238 291.04088855 C340.01663818 298.14464724 340.02345601 305.2479442 340.045578 312.35169113 C340.06389477 318.48374826 340.06620797 324.61566846 340.05582333 330.7477442 C340.04965926 334.39472085 340.04854985 338.04148292 340.06196928 341.68844485 C340.12360163 361.06833468 339.51344188 379.90649383 332.32928801 398.18590808 C332.03449553 398.95628406 331.73970304 399.72666003 331.43597746 400.52038074 C321.56390349 425.40895055 303.39633916 447.47265259 280.51678801 461.43590808 C279.44428801 462.1191112 278.37178801 462.80231433 277.26678801 463.50622058 C270.87908761 467.39502892 264.37727588 470.51391905 257.39178801 473.18590808 C256.70777922 473.45548327 256.02377043 473.72505847 255.3190341 474.00280261 C237.97390066 480.29356274 220.31333633 481.02109015 202.06366301 480.9534862 C199.57102378 480.95891983 197.07838778 480.96604938 194.58575773 480.97472644 C188.56849791 480.99094574 182.55151627 480.98874784 176.5342679 480.97707587 C171.63596864 480.96797467 166.73772516 480.96684611 161.83941984 480.97117114 C161.13741162 480.97178407 160.4354034 480.972397 159.7121222 480.97302851 C158.28519549 480.97430765 156.8582688 480.97560451 155.43134212 480.97691888 C142.10812179 480.98827542 128.78501226 480.97528886 115.46181011 480.95371741 C104.07513277 480.93585091 92.68861866 480.93895641 81.30194426 480.95739245 C68.02046485 480.97888685 54.7390821 480.98717725 41.45758772 480.9749434 C40.03644388 480.97366945 38.61530003 480.97241196 37.19415617 480.97117114 C36.14580882 480.97024549 36.14580882 480.97024549 35.07628274 480.96930113 C30.19424458 480.96587381 25.31226867 480.97161943 20.43024015 480.98108935 C13.83735129 480.99359907 7.24471952 480.98446269 0.65184355 480.96151233 C-1.7521532 480.95627193 -4.1561761 480.95765768 -6.56016207 480.96656299 C-27.00167565 481.03524245 -45.66925135 478.70379896 -64.48321199 470.43590808 C-65.13741121 470.15263659 -65.79161043 469.86936511 -66.46563387 469.57750964 C-96.56070683 456.29163597 -120.26739789 430.71434522 -132.35430574 400.23961902 C-133.20485184 397.98292817 -134.0117027 395.71652762 -134.79571199 393.43590808 C-135.14146273 392.44228259 -135.14146273 392.44228259 -135.49419832 391.42858386 C-140.63593053 375.53321048 -140.92170686 359.98019215 -140.88726473 343.43688464 C-140.89297719 340.94483646 -140.89994482 338.45279089 -140.90806246 335.96074939 C-140.92406598 329.92962135 -140.9261138 323.89864346 -140.92084955 317.86750892 C-140.91678494 312.95767823 -140.91827838 308.04787815 -140.92359781 303.13804889 C-140.92434623 302.43549871 -140.92509466 301.73294853 -140.92586576 301.00910895 C-140.92739746 299.58121611 -140.92893581 298.15332328 -140.93048073 296.72543046 C-140.94416578 283.37554472 -140.93879671 270.02571779 -140.92729551 256.67583343 C-140.91737129 244.50736752 -140.93029688 232.33905385 -140.95422971 220.17061141 C-140.97871166 207.6268549 -140.98820611 195.08316902 -140.98157698 182.53938913 C-140.97810435 175.5167548 -140.98018581 168.49423732 -140.99782801 161.47162127 C-141.01422803 154.8623826 -141.00922795 148.2533848 -140.99052286 141.64413714 C-140.98686511 139.23368896 -140.98986207 136.8232189 -141.00040865 134.41279101 C-141.07191714 116.70231191 -139.8430711 99.34505701 -133.29571199 82.68590808 C-133.00091951 81.9155321 -132.70612703 81.14515613 -132.40240145 80.35143542 C-120.0257774 49.14862308 -95.20163929 23.87317536 -64.57793856 10.31481433 C-60.9248511 8.78205036 -57.22920881 7.41117058 -53.48321199 6.12340808 C-52.48958651 5.77765735 -52.48958651 5.77765735 -51.47588778 5.42492175 C-49.16199607 4.67643908 -46.83608401 4.05232553 -44.48321199 3.43590808 C-43.52484438 3.18170093 -42.56647676 2.92749377 -41.57906771 2.66558337 C-27.87186837 -0.42070422 -13.97631898 -0.02294008 0 0 Z " fill="#000000" transform="translate(156.48321199417114,15.564091920852661)"/>
<path d="M0 0 C4.8846525 2.26787438 7.73212562 5.1153475 10 10 C10.99674178 17.40436754 10.57888027 21.9610761 6 28 C4.05739285 30.48943085 2.07016136 32.93781494 0.0625 35.375 C-1.10293549 36.79942115 -2.26829804 38.22390199 -3.43359375 39.6484375 C-4.02640137 40.3712793 -4.61920898 41.09412109 -5.22998047 41.83886719 C-7.99710464 45.21743038 -10.74812233 48.60901705 -13.5 52 C-14.58324744 53.33340312 -15.66658099 54.66673628 -16.75 56 C-17.554375 56.99 -17.554375 56.99 -18.375 58 C-72 124 -125.625 190 -179.25 256 C-179.78681396 256.6609668 -180.32362793 257.32193359 -180.87670898 258.00292969 C-181.9532664 259.32737542 -183.03089249 260.65095326 -184.10961914 261.97363281 C-186.93129984 265.43635221 -189.72926326 268.91512289 -192.49609375 272.421875 C-193.07230469 273.14632813 -193.64851562 273.87078125 -194.2421875 274.6171875 C-195.33902207 275.99707615 -196.42933492 277.38218483 -197.51171875 278.7734375 C-201.25606232 283.46351733 -204.82587804 287.4379159 -211 288.53125 C-211.99 288.5209375 -212.98 288.510625 -214 288.5 C-214.99 288.5103125 -215.98 288.520625 -217 288.53125 C-223.21175688 287.43125139 -226.86437399 283.36333954 -230.6875 278.625 C-231.3230481 277.84334473 -231.3230481 277.84334473 -231.97143555 277.04589844 C-235.59498373 272.56838458 -239.14431297 268.02985535 -242.68676758 263.48803711 C-246.18883597 259.00365895 -249.76982948 254.58921179 -253.375 250.1875 C-257.84184456 244.72721546 -262.18068627 239.1878522 -266.4375 233.5625 C-271.43590855 226.96102826 -276.6154554 220.53810142 -281.90551758 214.16870117 C-286.0040112 209.22890471 -290.00914101 204.22749792 -293.95751953 199.16723633 C-297.27296505 194.91867587 -300.62746597 190.70336198 -304 186.5 C-305.50070751 184.62527225 -307.00076267 182.75002502 -308.50048828 180.87451172 C-309.50587918 179.61769125 -310.51207345 178.36151305 -311.51904297 177.10595703 C-314.72428292 173.10381702 -317.87822726 169.06760786 -321 165 C-321.59296875 164.26394531 -322.1859375 163.52789062 -322.796875 162.76953125 C-326.27429448 158.03203561 -326.74939601 153.67421229 -326.484375 147.84375 C-325.52551873 142.21433576 -322.83228354 139.3209486 -318.3125 136.0625 C-313.1041798 134.39190673 -308.24961704 133.98956246 -302.96484375 135.6328125 C-296.20448115 139.1587511 -291.99240325 146.04791633 -287.52246094 152.00585938 C-284.91124962 155.42606047 -282.1685844 158.73785833 -279.4375 162.0625 C-274.70872069 167.84856886 -270.1215472 173.71826307 -265.58984375 179.66015625 C-262.65282767 183.4779331 -259.60927609 187.20713523 -256.5625 190.9375 C-250.15725135 198.77985966 -243.89624413 206.72735928 -237.66601562 214.70898438 C-236.32024703 216.43196111 -234.97296863 218.15374401 -233.625 219.875 C-233.18422119 220.43880371 -232.74344238 221.00260742 -232.28930664 221.58349609 C-229.70364098 224.87703692 -227.07905066 228.1342033 -224.41796875 231.3671875 C-223.51860596 232.46184326 -223.51860596 232.46184326 -222.60107422 233.57861328 C-221.42608993 235.00508206 -220.24684786 236.42805636 -219.06298828 237.84716797 C-218.26803955 238.81227295 -218.26803955 238.81227295 -217.45703125 239.796875 C-216.98241455 240.36760742 -216.50779785 240.93833984 -216.01879883 241.52636719 C-215 243 -215 243 -215 245 C-211.42599494 241.5092603 -208.08945387 237.8890348 -204.875 234.0625 C-204.39909424 233.49821289 -203.92318848 232.93392578 -203.43286133 232.35253906 C-199.63118209 227.81579761 -195.96788378 223.18021918 -192.33300781 218.50952148 C-188.09546753 213.08026593 -183.72358243 207.76761189 -179.33496094 202.46020508 C-175.34693191 197.6370806 -171.38059734 192.79743015 -167.4375 187.9375 C-166.90527832 187.28152832 -166.37305664 186.62555664 -165.82470703 185.94970703 C-164.75261853 184.62788727 -163.6806781 183.30594741 -162.60888672 181.98388672 C-159.90837253 178.65393553 -157.20398205 175.3271353 -154.5 172 C-153.41664829 170.6666816 -152.33331495 169.33334827 -151.25 168 C-114.41666667 122.66666667 -77.58333333 77.33333333 -40.75 32 C-39.94477905 31.0085498 -39.94477905 31.0085498 -39.12329102 29.99707031 C-38.0467336 28.67262458 -36.96910751 27.34904674 -35.89038086 26.02636719 C-33.06870016 22.56364779 -30.27073674 19.08487711 -27.50390625 15.578125 C-26.92769531 14.85367187 -26.35148437 14.12921875 -25.7578125 13.3828125 C-24.66097793 12.00292385 -23.57066508 10.61781517 -22.48828125 9.2265625 C-16.03676789 1.14554319 -10.34861304 -1.39308252 0 0 Z " fill="#FA1127" transform="translate(486,16)"/>
</svg>
